<?xml version="1.0" standalone="no"?>
<!DOCTYPE svg PUBLIC "-//W3C//DTD SVG 20010904//EN"
 "http://www.w3.org/TR/2001/REC-SVG-20010904/DTD/svg10.dtd">
<svg version="1.0" xmlns="http://www.w3.org/2000/svg"
 width="400.000000pt" height="400.000000pt" viewBox="0 0 365.000000 501.000000"
 preserveAspectRatio="xMidYMid meet">

<g transform="translate(0.000000,501.000000) scale(0.100000,-0.100000)"
fill="#000000" stroke="none">
<path d="M1840 4994 c0 -3 38 -45 84 -93 123 -128 161 -217 161 -376 0 -82 -3
-97 -32 -155 -64 -129 -193 -256 -413 -408 -212 -146 -321 -232 -420 -331
-108 -108 -155 -176 -264 -376 -42 -77 -84 -146 -93 -152 -9 -7 -32 -13 -51
-13 -45 0 -108 62 -118 116 -10 55 2 162 25 225 40 107 -1 118 -111 31 -181
-144 -280 -300 -322 -504 -19 -92 -20 -164 -4 -275 l12 -83 -86 -168 c-85
-166 -140 -313 -173 -462 -26 -118 -32 -470 -10 -602 23 -139 73 -287 149
-443 190 -389 529 -684 959 -834 175 -61 268 -75 517 -75 305 -1 412 23 687
154 171 82 279 155 400 273 323 314 482 630 523 1042 15 153 14 150 74 194 36
27 73 69 110 124 151 227 206 448 193 781 -6 156 -27 261 -50 253 -7 -2 -27
-41 -45 -88 -61 -157 -95 -220 -152 -278 -31 -31 -72 -65 -93 -74 -33 -16 -39
-16 -66 -3 -40 21 -71 63 -71 97 0 15 22 77 50 136 77 169 85 207 85 428 0
184 -1 194 -32 300 -59 205 -204 510 -243 510 -10 0 -19 -18 -27 -50 -7 -27
-24 -97 -38 -155 -53 -223 -194 -441 -348 -541 -70 -46 -103 -54 -156 -39
-112 30 -109 215 5 443 62 123 141 318 165 407 13 46 23 123 26 200 7 151 -12
233 -84 373 -80 155 -265 331 -428 408 -112 52 -295 104 -295 83z m60 -2068
c407 -88 734 -335 918 -693 103 -200 145 -378 145 -608 0 -355 -132 -675 -383
-925 -188 -188 -410 -309 -671 -366 -111 -24 -352 -29 -471 -10 -665 109
-1143 691 -1114 1356 12 281 97 520 263 741 200 266 514 458 833 509 41 6 82
13 90 15 39 10 322 -4 390 -19z"/>
<path d="M1370 2195 c-7 -9 -11 -38 -8 -77 l3 -63 -95 0 -95 0 -3 73 -3 72
-99 0 -100 0 0 -220 0 -220 100 0 100 0 0 130 0 131 98 -3 97 -3 0 -125 c0
-111 2 -125 18 -128 16 -3 17 12 17 217 0 121 -4 222 -9 225 -5 3 -14 -1 -21
-9z"/>
<path d="M1553 2180 c-163 -93 -153 -316 16 -402 115 -59 247 -13 306 105 32
65 33 125 1 192 -42 90 -111 135 -206 135 -54 0 -74 -5 -117 -30z m178 -12
c93 -31 133 -94 127 -199 -3 -58 -8 -74 -34 -106 -38 -47 -77 -70 -132 -79
l-42 -7 0 202 0 201 24 0 c12 0 38 -5 57 -12z"/>
<path d="M1865 2189 c-13 -20 13 -31 63 -28 l50 4 6 -35 c3 -19 6 -110 6 -202
l0 -168 100 0 100 0 0 203 0 203 58 -1 c44 0 57 3 57 15 0 13 -32 15 -217 18
-150 2 -219 -1 -223 -9z"/>
<path d="M1555 1286 l-126 -214 -97 1 -97 2 -3 127 -3 127 92 3 c63 2 94 7 97
16 3 9 -20 12 -93 12 l-96 0 3 43 3 42 83 5 c45 3 82 10 82 15 0 6 -69 11
-182 13 l-183 2 1 -217 1 -218 206 -3 206 -2 16 30 16 30 103 0 104 0 14 -30
13 -30 112 0 c62 0 113 3 113 6 0 10 -242 444 -250 449 -5 3 -65 -91 -135
-209z m79 -86 l37 -70 -87 0 -86 0 14 23 c8 12 27 43 42 70 15 26 31 47 36 47
4 0 24 -31 44 -70z"/>
<path d="M2445 1474 c-72 -37 -98 -92 -76 -162 6 -21 45 -76 91 -127 43 -49
79 -96 80 -103 1 -34 -86 -19 -134 23 -16 14 -33 22 -38 17 -15 -15 3 -42 47
-67 80 -47 221 -27 273 40 46 58 23 124 -79 232 -60 63 -83 99 -75 119 8 20
55 11 104 -18 18 -11 36 -18 39 -15 11 12 -7 37 -39 57 -41 25 -148 28 -193 4z"/>
<path d="M560 1261 l0 -221 113 0 c145 0 203 16 254 71 50 53 62 82 63 149 0
83 -42 155 -115 193 -33 17 -63 21 -177 25 l-138 5 0 -222z m290 168 c80 -36
116 -100 108 -190 -9 -88 -70 -151 -162 -166 -31 -5 -34 -3 -40 27 -8 42 -8
175 0 273 8 88 14 92 94 56z"/>
<path d="M1960 1260 l0 -220 198 2 c167 3 197 5 197 18 0 12 -17 15 -97 14
l-98 0 0 203 0 203 -100 0 -100 0 0 -220z"/>
</g>
</svg>
