<?xml version="1.0" standalone="no"?>
<!DOCTYPE svg PUBLIC "-//W3C//DTD SVG 20010904//EN"
 "http://www.w3.org/TR/2001/REC-SVG-20010904/DTD/svg10.dtd">
<svg version="1.0" xmlns="http://www.w3.org/2000/svg"
 viewBox="0 0 512.000000 512.000000"
 preserveAspectRatio="xMidYMid meet">
<metadata>
Created by potrace 1.16, written by Peter Selinger 2001-2019
</metadata>
<g transform="translate(0.000000,512.000000) scale(0.100000,-0.100000)"
fill="#000000" stroke="none">
<path d="M1720 4169 l-45 -91 -100 -51 -100 -50 100 -47 100 -47 45 -91 c24
-51 47 -92 50 -92 3 0 26 42 52 93 l47 92 96 44 c52 24 95 46 95 50 0 3 -43
26 -96 50 l-96 44 -46 94 c-26 51 -49 93 -52 93 -3 0 -26 -41 -50 -91z"/>
<path d="M849 4057 l-73 -145 -148 -72 c-81 -40 -148 -73 -148 -75 0 -2 67
-35 148 -75 l148 -72 73 -145 c40 -80 76 -142 81 -137 4 5 40 71 80 146 l71
137 145 70 c79 38 144 73 144 76 0 3 -65 38 -144 76 l-145 70 -71 137 c-40 75
-76 141 -80 146 -5 5 -41 -57 -81 -137z"/>
<path d="M1527 3332 c-71 -60 -200 -201 -324 -354 l-94 -116 -82 -6 c-290 -20
-375 -29 -403 -41 -39 -16 -74 -61 -115 -148 -26 -58 -30 -72 -20 -93 15 -33
60 -59 168 -95 89 -29 92 -32 82 -52 -7 -12 -50 -93 -96 -179 l-84 -157 -5
-463 c-3 -255 -2 -550 3 -656 8 -191 9 -192 36 -220 l27 -27 328 -3 c310 -2
329 -1 359 17 43 27 53 68 53 219 l0 122 1174 0 1174 0 4 -142 c3 -157 12
-185 67 -207 19 -8 126 -11 355 -9 l328 3 23 27 c17 19 25 45 30 90 3 35 5
329 3 653 l-3 590 -67 135 c-37 74 -76 156 -87 182 l-20 47 57 16 c94 28 199
80 207 104 11 37 -37 152 -89 209 -44 49 -44 49 -453 78 l-82 6 -99 121 c-125
154 -238 277 -315 345 l-61 52 -961 0 -961 0 -57 -48z m1891 -259 c49 -23 191
-166 275 -278 82 -110 157 -250 160 -302 l2 -38 -1310 0 -1310 0 3 30 c4 47
95 221 166 316 83 112 189 225 245 261 l45 28 844 0 c774 0 847 -1 880 -17z
m-2333 -1018 c277 -26 385 -44 443 -71 70 -34 82 -60 82 -175 l0 -92 -197 7
c-480 18 -532 25 -567 79 -25 38 -36 111 -29 196 l6 82 51 -6 c28 -3 123 -12
211 -20z m3189 -51 c12 -131 -14 -212 -77 -242 -29 -14 -192 -26 -519 -38
l-198 -7 0 92 c0 62 5 101 15 121 24 46 102 77 240 95 105 14 452 51 511 54
19 1 22 -6 28 -75z"/>
</g>
</svg>
