<?xml version="1.0" standalone="no"?>
<!DOCTYPE svg PUBLIC "-//W3C//DTD SVG 20010904//EN"
 "http://www.w3.org/TR/2001/REC-SVG-20010904/DTD/svg10.dtd">
<svg version="1.0" xmlns="http://www.w3.org/2000/svg"
 width="300.000000pt" height="300.000000pt" viewBox="0 0 200.000000 200.000000"
 preserveAspectRatio="xMidYMid meet">
<metadata>
Created by potrace 1.16, written by Peter Selinger 2001-2019
</metadata>
<g transform="translate(0.000000,200.000000) scale(0.100000,-0.100000)"
fill="#000000" stroke="none">
<path d="M180 1387 c-52 -26 -49 -104 5 -129 59 -27 119 33 94 94 -7 16 -23
34 -36 39 -31 11 -33 11 -63 -4z"/>
<path d="M1766 1379 c-50 -39 -24 -129 38 -129 39 0 76 36 76 75 0 36 -36 75
-70 75 -10 0 -29 -9 -44 -21z"/>
<path d="M748 1309 c-102 -15 -126 -36 -184 -161 -26 -55 -27 -56 -50 -42 -33
22 -88 15 -92 -13 -4 -26 34 -63 65 -63 13 0 23 -3 23 -6 0 -4 -17 -29 -37
-57 -26 -36 -37 -61 -37 -86 -1 -68 26 -346 33 -354 5 -5 32 -7 62 -5 52 3 54
4 57 33 l3 30 117 -7 c64 -5 125 -13 134 -18 10 -6 72 -10 138 -10 l120 0 1
38 c2 30 3 32 6 9 l4 -27 124 6 123 7 4 -29 c3 -28 4 -29 63 -29 l60 0 13 145
c22 245 22 237 -21 300 l-37 55 28 7 c36 10 65 41 60 65 -4 24 -61 30 -92 9
-23 -15 -24 -14 -67 72 -52 102 -73 118 -180 132 -89 11 -361 11 -441 -1z
m462 -58 l65 -6 49 -95 48 -95 -393 -3 c-215 -1 -394 0 -397 2 -2 3 18 47 45
98 l49 93 59 6 c82 8 395 8 475 0z m-492 -361 c89 -54 -29 -131 -126 -81 -22
11 -48 31 -57 43 -15 22 -14 24 6 41 31 25 133 23 177 -3z m676 10 c36 -13 32
-33 -11 -69 -45 -37 -89 -47 -137 -31 -61 20 -70 66 -17 95 30 16 128 20 165
5z"/>
<path d="M140 1235 c-18 -22 3 -335 24 -351 13 -9 16 -43 18 -185 l3 -174 68
-3 68 -3 -3 27 c-2 22 -10 30 -35 36 l-33 9 0 143 c0 120 3 146 16 157 13 11
15 26 11 81 l-6 68 49 -52 c41 -45 51 -51 67 -42 34 21 25 47 -47 129 -39 44
-70 89 -70 101 0 15 -14 29 -49 47 -56 31 -64 32 -81 12z"/>
<path d="M1798 1222 c-34 -19 -48 -33 -48 -48 0 -12 -8 -32 -18 -44 -18 -22
-19 -22 -45 -5 -15 9 -27 24 -27 31 0 17 -16 18 -59 3 -32 -11 -39 -23 -21
-34 7 -4 7 -12 0 -25 -5 -10 -10 -36 -10 -57 0 -31 7 -43 37 -70 20 -18 40
-33 45 -33 5 0 29 21 53 48 l45 47 0 -70 c0 -39 5 -76 10 -81 7 -7 10 -65 8
-154 l-3 -144 -32 -8 c-26 -7 -33 -14 -33 -33 0 -24 3 -25 65 -25 53 0 66 3
75 19 6 11 10 87 10 176 0 118 3 161 14 178 11 16 15 66 18 187 3 159 2 165
-17 167 -11 2 -41 -10 -67 -25z"/>
</g>
</svg>
