<?xml version="1.0" standalone="no"?>
<!DOCTYPE svg PUBLIC "-//W3C//DTD SVG 20010904//EN"
 "http://www.w3.org/TR/2001/REC-SVG-20010904/DTD/svg10.dtd">
<svg version="1.0" xmlns="http://www.w3.org/2000/svg"
 width="512.000000pt" height="512.000000pt" viewBox="0 0 512.000000 512.000000"
 preserveAspectRatio="xMidYMid meet">

<g transform="translate(0.000000,512.000000) scale(0.100000,-0.100000)"
fill="#f76d2b" stroke="none">
<path d="M207 4126 c-58 -21 -114 -62 -147 -108 -64 -87 -61 -12 -58 -1489 l3
-1344 23 -47 c32 -64 85 -116 151 -147 l56 -26 2325 0 2325 0 56 26 c66 31
120 84 151 148 l23 46 0 1365 0 1365 -28 57 c-30 61 -74 105 -140 140 l-42 23
-2330 2 c-1942 2 -2336 0 -2368 -11z m4713 -57 c55 -25 95 -62 123 -114 l22
-40 0 -1360 c0 -1315 -1 -1361 -19 -1398 -24 -49 -67 -92 -120 -120 l-41 -22
-2325 0 -2325 0 -41 22 c-53 28 -96 71 -120 120 -18 37 -19 83 -19 1398 l0
1360 22 40 c28 52 68 89 123 114 45 20 52 21 2360 21 2308 0 2315 -1 2360 -21z"/>
<path d="M2370 3665 c0 -33 -2 -35 -35 -35 -34 0 -35 -1 -35 -40 0 -39 1 -40
35 -40 33 0 35 -2 35 -35 0 -34 1 -35 40 -35 39 0 40 1 40 35 0 34 -1 35 -40
35 l-40 0 0 40 0 40 40 0 c39 0 40 1 40 35 0 34 -1 35 -40 35 -39 0 -40 -1
-40 -35z"/>
<path d="M2151 3513 c4 -37 3 -38 -31 -38 l-35 0 -3 -72 -3 -73 -34 0 c-33 0
-35 2 -35 35 0 33 -2 35 -35 35 -33 0 -35 -2 -35 -35 0 -33 2 -35 35 -35 33 0
35 -2 35 -35 0 -33 2 -35 35 -35 33 0 35 2 35 35 0 33 2 35 35 35 33 0 35 -2
35 -35 0 -33 2 -35 35 -35 33 0 35 2 35 35 0 34 1 35 40 35 39 0 40 1 40 35 0
34 -1 35 -41 35 l-40 0 3 38 c3 34 6 37 36 40 29 3 32 6 32 38 l0 34 -71 0
-71 0 3 -37z m69 -148 c0 -33 -2 -35 -35 -35 -33 0 -35 2 -35 35 0 33 2 35 35
35 33 0 35 -2 35 -35z"/>
<path d="M1197 3430 c-376 -68 -673 -353 -753 -723 -21 -95 -21 -289 0 -384
38 -176 123 -330 256 -464 177 -179 393 -269 649 -269 119 0 194 11 291 42 70
22 168 69 212 100 26 18 62 19 1100 18 925 0 1086 2 1163 15 165 29 294 95
419 216 234 224 290 532 149 819 -39 81 -60 108 -137 185 -95 93 -162 140
-266 182 -144 58 -112 56 -1162 60 -835 4 -968 6 -968 19 0 9 -11 14 -35 14
-24 0 -35 -5 -35 -15 0 -10 -11 -15 -35 -15 -24 0 -35 5 -35 15 0 11 -12 15
-51 15 -43 0 -63 7 -123 44 -77 48 -166 86 -261 112 -70 18 -306 27 -378 14z
m351 -171 c112 -28 286 -119 229 -119 -12 0 -17 -13 -19 -52 l-3 -53 -37 -3
c-36 -3 -38 -5 -38 -38 0 -27 -4 -34 -20 -34 -16 0 -20 -7 -20 -35 0 -32 -3
-35 -29 -35 -25 0 -35 -10 -77 -77 -27 -42 -83 -146 -125 -230 l-76 -153 -77
94 c-88 107 -178 184 -257 221 -68 31 -84 31 -105 0 -22 -33 -12 -56 59 -145
95 -118 153 -212 239 -388 86 -176 101 -192 175 -192 21 0 48 7 60 15 12 8 41
64 68 127 51 123 125 266 186 361 28 43 39 71 39 99 0 34 3 38 25 38 22 0 25
4 25 35 0 32 2 35 30 35 28 0 30 2 30 40 0 39 1 40 35 40 34 0 35 1 35 40 0
39 -1 40 -35 40 -33 0 -35 2 -35 35 0 33 2 35 35 35 33 0 35 -2 35 -35 0 -33
2 -35 35 -35 33 0 35 2 35 35 0 19 4 35 9 35 14 0 87 -147 111 -225 30 -95 38
-273 17 -372 -19 -86 -53 -173 -98 -250 -48 -81 -181 -212 -264 -261 -207
-121 -473 -140 -690 -49 -312 130 -509 468 -467 802 33 261 180 474 411 594
173 89 356 110 549 60z m2647 -127 c120 -41 202 -90 296 -179 143 -137 203
-276 202 -473 0 -85 -5 -120 -27 -186 -82 -255 -327 -443 -618 -474 -54 -6
-509 -10 -1092 -10 l-998 0 73 79 c167 177 242 370 243 621 1 202 -39 346
-138 500 -55 84 -57 100 -16 100 25 0 30 4 30 25 l0 26 988 -3 987 -3 70 -23z
m-2295 -22 c0 -39 -1 -40 -35 -40 -33 0 -35 2 -35 33 0 41 5 47 42 47 26 0 28
-3 28 -40z"/>
<path d="M3250 2770 c0 -16 7 -20 30 -20 23 0 30 4 30 20 0 16 -7 20 -30 20
-23 0 -30 -4 -30 -20z"/>
<path d="M3450 2783 c-30 -11 -60 -47 -60 -70 0 -42 19 -61 81 -84 43 -16 59
-27 57 -38 -4 -22 -63 -26 -93 -7 -21 14 -24 13 -39 -3 -9 -10 -16 -20 -16
-23 0 -14 72 -38 112 -38 53 0 84 20 93 60 10 46 -15 76 -80 96 -41 13 -55 22
-55 36 0 27 27 33 66 15 32 -16 34 -16 49 6 14 20 13 22 -8 33 -29 16 -88 25
-107 17z"/>
<path d="M3660 2770 c0 -16 7 -20 30 -20 23 0 30 4 30 20 0 16 -7 20 -30 20
-23 0 -30 -4 -30 -20z"/>
<path d="M2521 2772 c2 -5 26 -64 53 -131 46 -111 52 -121 76 -121 24 0 30 10
77 131 l51 130 -31 -3 c-29 -3 -33 -9 -59 -78 -16 -41 -31 -82 -34 -90 -3 -9
-20 23 -38 75 -32 86 -34 90 -66 93 -17 2 -31 -1 -29 -6z"/>
<path d="M2849 2707 c-43 -33 -52 -108 -18 -151 24 -31 73 -46 113 -35 44 13
53 26 33 46 -13 13 -19 15 -29 5 -18 -18 -53 -14 -73 8 -18 20 -17 20 53 20
l72 0 0 34 c0 51 -38 86 -92 86 -24 0 -50 -6 -59 -13z m91 -47 c10 -19 8 -20
-35 -20 -50 0 -52 2 -29 24 21 22 51 20 64 -4z"/>
<path d="M3070 2620 l0 -100 30 0 c29 0 30 1 30 49 0 63 7 80 36 92 17 6 24
16 24 34 0 29 -20 33 -44 9 -15 -14 -16 -14 -16 0 0 11 -9 16 -30 16 l-30 0 0
-100z"/>
<path d="M3260 2620 l0 -100 25 0 25 0 0 100 0 100 -25 0 -25 0 0 -100z"/>
<path d="M3660 2620 l0 -100 30 0 30 0 0 100 0 100 -30 0 -30 0 0 -100z"/>
<path d="M3825 2695 c-19 -18 -25 -35 -25 -65 0 -55 34 -90 88 -90 21 0 43 5
50 12 9 9 12 9 12 -2 -1 -40 -40 -54 -101 -37 -20 5 -28 3 -33 -10 -11 -27 12
-38 79 -38 54 0 68 4 87 23 20 20 23 34 26 127 l4 105 -31 0 c-17 0 -31 -5
-31 -12 0 -9 -3 -9 -12 0 -22 22 -86 14 -113 -13z m106 -25 c35 -19 14 -90
-27 -90 -16 0 -54 35 -54 50 0 13 37 50 51 50 6 0 19 -5 30 -10z"/>
<path d="M4090 2620 l0 -100 25 0 c24 0 25 3 25 63 0 73 9 90 41 85 22 -3 24
-8 27 -75 l3 -73 29 0 30 0 0 78 c0 92 -15 122 -61 122 -17 0 -39 -5 -50 -10
-13 -7 -19 -7 -19 0 0 5 -11 10 -25 10 l-25 0 0 -100z"/>
<path d="M2624 2453 c-29 -6 -52 -33 -60 -70 -8 -38 18 -67 73 -82 52 -15 67
-26 60 -45 -7 -19 -58 -22 -88 -5 -20 10 -49 -2 -49 -22 0 -17 60 -39 105 -39
35 0 52 6 70 25 49 48 25 102 -60 132 -53 20 -70 47 -36 58 11 3 34 -1 51 -10
30 -15 33 -15 46 2 19 25 18 29 -13 41 -38 15 -74 21 -99 15z"/>
<path d="M4230 2415 c0 -42 -2 -45 -19 -35 -78 41 -160 -37 -131 -125 19 -57
79 -82 131 -55 13 7 19 7 19 0 0 -5 11 -10 25 -10 l25 0 0 135 0 135 -25 0
c-23 0 -25 -4 -25 -45z m-20 -85 c11 -11 20 -29 20 -40 0 -20 -32 -60 -48 -60
-23 0 -52 34 -52 60 0 18 8 34 22 44 29 20 34 20 58 -4z"/>
<path d="M2858 2360 c-27 -28 -30 -36 -25 -75 5 -52 20 -73 63 -91 23 -10 41
-10 67 -3 42 11 53 24 37 43 -8 11 -17 12 -41 3 -31 -12 -59 -3 -67 21 -3 9
17 12 67 12 79 0 82 4 57 65 -27 64 -106 76 -158 25z m100 -22 c21 -21 13 -28
-28 -28 -22 0 -40 4 -40 8 0 14 23 32 40 32 9 0 21 -5 28 -12z"/>
<path d="M3138 2376 c-25 -19 -47 -77 -41 -108 6 -34 49 -77 77 -80 42 -3 71
4 89 20 15 13 16 18 4 29 -11 11 -19 12 -40 2 -61 -28 -109 60 -53 96 19 13
29 14 45 6 11 -6 24 -11 29 -11 16 0 23 31 11 46 -15 18 -98 18 -121 0z"/>
<path d="M3350 2318 c0 -91 14 -122 57 -126 18 -2 41 2 53 8 13 7 20 7 20 0 0
-5 14 -10 30 -10 l30 0 0 100 0 100 -30 0 -29 0 -3 -72 -3 -73 -30 0 -30 0 -3
73 -3 72 -29 0 -30 0 0 -72z"/>
<path d="M3630 2290 l0 -100 25 0 c22 0 25 4 25 39 0 55 15 90 45 101 18 7 25
17 25 35 0 30 -24 34 -52 8 -17 -15 -18 -15 -18 0 0 11 -8 17 -25 17 l-25 0 0
-100z"/>
<path d="M3836 2359 c-68 -81 6 -196 107 -168 42 11 53 24 37 43 -8 11 -17 12
-41 3 -31 -12 -59 -3 -67 21 -2 8 16 12 62 12 35 0 67 4 70 8 10 16 -15 81
-37 97 -12 8 -40 15 -63 15 -35 0 -47 -5 -68 -31z m102 -21 c21 -21 13 -28
-28 -28 -22 0 -40 4 -40 8 0 14 23 32 40 32 9 0 21 -5 28 -12z"/>
<path d="M4380 3240 c0 -5 6 -10 14 -10 10 0 16 -13 18 -37 2 -21 8 -38 13
-38 6 0 11 17 13 38 2 20 7 37 13 37 5 0 9 5 9 10 0 6 -18 10 -40 10 -22 0
-40 -4 -40 -10z"/>
<path d="M4490 3200 c0 -27 5 -50 10 -50 6 0 10 15 10 33 1 27 2 29 11 14 8
-14 14 -16 25 -6 11 9 14 8 14 -9 0 -12 5 -24 10 -27 6 -4 10 13 10 44 0 55
-8 63 -28 30 l-14 -21 -14 21 c-24 33 -34 25 -34 -29z"/>
</g>
</svg>
